P3
# Converted from P6 to P3
4 4
255
32 32 32
32 32 32
32 32 32
239 191 189
32 239 191
189 32 32
32 32 239
191 189 119
32 32 32
32 32 32
32 32 32
32 32 32
32 239 191
189 119 32
32 32 239
191 189 32
